<svg xmlns="http://www.w3.org/2000/svg" viewBox="0 0 24 24" role="img" aria-label="Discord hover icon">
  <path fill="#46D3FF" d="M20.317 4.369A19.791 19.791 0 0 0 15.885 3c-.19.328-.404.77-.553 1.117a18.273 18.273 0 0 0-5.327 0A11.146 11.146 0 0 0 9.45 3a19.736 19.736 0 0 0-4.433 1.37C2.213 8.585 1.56 12.694 1.886 16.744a19.96 19.96 0 0 0 5.337 2.726c.43-.588.814-1.213 1.145-1.87a12.98 12.98 0 0 1-1.804-.87c.151-.11.299-.224.442-.341 3.478 1.635 7.246 1.635 10.683 0 .144.117.291.231.442.341-.57.338-1.174.63-1.807.87.331.657.716 1.282 1.146 1.87a19.89 19.89 0 0 0 5.339-2.726c.382-4.698-.653-8.77-3.492-12.375ZM8.68 14.286c-1.042 0-1.896-.95-1.896-2.117 0-1.167.836-2.117 1.896-2.117 1.067 0 1.91.959 1.895 2.117 0 1.167-.836 2.117-1.895 2.117Zm6.639 0c-1.043 0-1.896-.95-1.896-2.117 0-1.167.836-2.117 1.896-2.117 1.067 0 1.91.959 1.895 2.117 0 1.167-.828 2.117-1.895 2.117Z"/>
</svg>
